<mxfile host="app.diagrams.net" modified="2023-05-02T00:25:34.833Z" agent="Mozilla/5.0 (Macintosh; Intel Mac OS X 10_15_7) AppleWebKit/605.1.15 (KHTML, like Gecko) Version/16.3 Safari/605.1.15" etag="KgJcd-Z9f0wpp3hc5GvO" version="21.2.3" type="github">
  <diagram name="Page-1" id="bzI7RJhNmHLFxu5E56RZ">
    <mxGraphModel dx="954" dy="539" grid="1" gridSize="10" guides="1" tooltips="1" connect="1" arrows="1" fold="1" page="1" pageScale="1.2" pageWidth="850" pageHeight="1100" math="0" shadow="0">
      <root>
        <mxCell id="0" />
        <mxCell id="1" parent="0" />
        <mxCell id="1UxBxwU_H0tkiuh4YB5s-1" value="&lt;b&gt;&lt;font style=&quot;font-size: 14px;&quot;&gt;Prenatal Stress&lt;/font&gt;&lt;/b&gt;" style="ellipse;whiteSpace=wrap;html=1;labelBackgroundColor=none;fillColor=#f5f5f5;strokeColor=#666666;fontColor=#333333;" parent="1" vertex="1">
          <mxGeometry x="215" y="370" width="150" height="110" as="geometry" />
        </mxCell>
        <mxCell id="1UxBxwU_H0tkiuh4YB5s-2" value="&lt;b&gt;&lt;font style=&quot;font-size: 14px;&quot;&gt;Foetal Attachment&lt;/font&gt;&lt;/b&gt;" style="ellipse;whiteSpace=wrap;html=1;labelBackgroundColor=none;fillColor=#f5f5f5;strokeColor=#666666;fontColor=#333333;" parent="1" vertex="1">
          <mxGeometry x="425" y="275" width="150" height="110" as="geometry" />
        </mxCell>
        <mxCell id="1UxBxwU_H0tkiuh4YB5s-3" value="&lt;b&gt;&lt;font style=&quot;font-size: 14px;&quot;&gt;Depression&lt;/font&gt;&lt;/b&gt;" style="ellipse;whiteSpace=wrap;html=1;labelBackgroundColor=none;fillColor=#f5f5f5;strokeColor=#666666;fontColor=#333333;" parent="1" vertex="1">
          <mxGeometry x="675" y="325" width="120" height="80" as="geometry" />
        </mxCell>
        <mxCell id="1UxBxwU_H0tkiuh4YB5s-4" value="&lt;b&gt;&lt;font style=&quot;font-size: 14px;&quot;&gt;Anxiety&lt;/font&gt;&lt;/b&gt;" style="ellipse;whiteSpace=wrap;html=1;labelBackgroundColor=none;fillColor=#f5f5f5;strokeColor=#666666;fontColor=#333333;" parent="1" vertex="1">
          <mxGeometry x="675" y="455" width="120" height="80" as="geometry" />
        </mxCell>
        <mxCell id="1UxBxwU_H0tkiuh4YB5s-8" value="" style="endArrow=classic;html=1;rounded=0;exitX=1;exitY=0.5;exitDx=0;exitDy=0;entryX=0;entryY=0.5;entryDx=0;entryDy=0;labelBackgroundColor=none;strokeColor=#666666;fontColor=default;fillColor=#f5f5f5;" parent="1" source="1UxBxwU_H0tkiuh4YB5s-1" target="1UxBxwU_H0tkiuh4YB5s-2" edge="1">
          <mxGeometry width="50" height="50" relative="1" as="geometry">
            <mxPoint x="345" y="430" as="sourcePoint" />
            <mxPoint x="565" y="370" as="targetPoint" />
          </mxGeometry>
        </mxCell>
        <mxCell id="1UxBxwU_H0tkiuh4YB5s-10" value="" style="endArrow=classic;html=1;rounded=0;entryX=0;entryY=0.5;entryDx=0;entryDy=0;exitX=1;exitY=0.5;exitDx=0;exitDy=0;labelBackgroundColor=none;strokeColor=#666666;fontColor=default;fillColor=#f5f5f5;" parent="1" source="1UxBxwU_H0tkiuh4YB5s-2" target="1UxBxwU_H0tkiuh4YB5s-3" edge="1">
          <mxGeometry width="50" height="50" relative="1" as="geometry">
            <mxPoint x="515" y="420" as="sourcePoint" />
            <mxPoint x="565" y="370" as="targetPoint" />
          </mxGeometry>
        </mxCell>
        <mxCell id="1UxBxwU_H0tkiuh4YB5s-11" value="" style="endArrow=classic;html=1;rounded=0;entryX=0;entryY=0.5;entryDx=0;entryDy=0;labelBackgroundColor=none;strokeColor=#666666;fontColor=default;exitX=1;exitY=0.5;exitDx=0;exitDy=0;fillColor=#f5f5f5;" parent="1" source="1UxBxwU_H0tkiuh4YB5s-2" target="1UxBxwU_H0tkiuh4YB5s-4" edge="1">
          <mxGeometry width="50" height="50" relative="1" as="geometry">
            <mxPoint x="555" y="300" as="sourcePoint" />
            <mxPoint x="565" y="370" as="targetPoint" />
          </mxGeometry>
        </mxCell>
        <mxCell id="1UxBxwU_H0tkiuh4YB5s-12" value="" style="endArrow=classic;html=1;rounded=0;entryX=0;entryY=0.5;entryDx=0;entryDy=0;labelBackgroundColor=none;strokeColor=#666666;fontColor=default;exitX=1;exitY=0.5;exitDx=0;exitDy=0;fillColor=#f5f5f5;" parent="1" source="1UxBxwU_H0tkiuh4YB5s-1" target="1UxBxwU_H0tkiuh4YB5s-4" edge="1">
          <mxGeometry width="50" height="50" relative="1" as="geometry">
            <mxPoint x="345" y="435" as="sourcePoint" />
            <mxPoint x="565" y="370" as="targetPoint" />
          </mxGeometry>
        </mxCell>
        <mxCell id="1UxBxwU_H0tkiuh4YB5s-13" value="" style="endArrow=classic;html=1;rounded=0;labelBackgroundColor=none;strokeColor=#666666;fontColor=default;exitX=1;exitY=0.5;exitDx=0;exitDy=0;fillColor=#f5f5f5;" parent="1" source="1UxBxwU_H0tkiuh4YB5s-1" edge="1">
          <mxGeometry width="50" height="50" relative="1" as="geometry">
            <mxPoint x="345" y="430" as="sourcePoint" />
            <mxPoint x="675" y="365" as="targetPoint" />
          </mxGeometry>
        </mxCell>
        <mxCell id="1UxBxwU_H0tkiuh4YB5s-15" value="" style="endArrow=classic;startArrow=classic;html=1;labelBackgroundColor=none;strokeColor=#d79b00;fontColor=default;curved=1;exitX=1;exitY=0;exitDx=0;exitDy=0;entryX=1;entryY=1;entryDx=0;entryDy=0;strokeWidth=2;endSize=4;sourcePerimeterSpacing=-1;fillColor=#ffe6cc;" parent="1" source="1UxBxwU_H0tkiuh4YB5s-4" target="1UxBxwU_H0tkiuh4YB5s-3" edge="1">
          <mxGeometry width="50" height="50" relative="1" as="geometry">
            <mxPoint x="685" y="465" as="sourcePoint" />
            <mxPoint x="735" y="415" as="targetPoint" />
            <Array as="points">
              <mxPoint x="795" y="430" />
            </Array>
          </mxGeometry>
        </mxCell>
        <mxCell id="1UxBxwU_H0tkiuh4YB5s-20" value="CDep1" style="rounded=0;whiteSpace=wrap;html=1;labelBackgroundColor=none;fillColor=#f5f5f5;strokeColor=#666666;fontColor=#333333;" parent="1" vertex="1">
          <mxGeometry x="825" y="310" width="50" height="20" as="geometry" />
        </mxCell>
        <mxCell id="1UxBxwU_H0tkiuh4YB5s-21" value="CDep2" style="rounded=0;whiteSpace=wrap;html=1;labelBackgroundColor=none;fillColor=#f5f5f5;strokeColor=#666666;fontColor=#333333;" parent="1" vertex="1">
          <mxGeometry x="825" y="340" width="50" height="20" as="geometry" />
        </mxCell>
        <mxCell id="1UxBxwU_H0tkiuh4YB5s-22" value="CDep3" style="rounded=0;whiteSpace=wrap;html=1;labelBackgroundColor=none;fillColor=#f5f5f5;strokeColor=#666666;fontColor=#333333;" parent="1" vertex="1">
          <mxGeometry x="825" y="370" width="50" height="20" as="geometry" />
        </mxCell>
        <mxCell id="1UxBxwU_H0tkiuh4YB5s-26" value="CDep4" style="rounded=0;whiteSpace=wrap;html=1;labelBackgroundColor=none;fillColor=#f5f5f5;strokeColor=#666666;fontColor=#333333;" parent="1" vertex="1">
          <mxGeometry x="825" y="400" width="50" height="20" as="geometry" />
        </mxCell>
        <mxCell id="1UxBxwU_H0tkiuh4YB5s-30" value="CAnx1" style="rounded=0;whiteSpace=wrap;html=1;labelBackgroundColor=none;fillColor=#f5f5f5;strokeColor=#666666;fontColor=#333333;" parent="1" vertex="1">
          <mxGeometry x="825" y="440" width="50" height="20" as="geometry" />
        </mxCell>
        <mxCell id="1UxBxwU_H0tkiuh4YB5s-31" value="CAnx2" style="rounded=0;whiteSpace=wrap;html=1;labelBackgroundColor=none;fillColor=#f5f5f5;strokeColor=#666666;fontColor=#333333;" parent="1" vertex="1">
          <mxGeometry x="825" y="470" width="50" height="20" as="geometry" />
        </mxCell>
        <mxCell id="1UxBxwU_H0tkiuh4YB5s-32" value="CAnx3" style="rounded=0;whiteSpace=wrap;html=1;labelBackgroundColor=none;fillColor=#f5f5f5;strokeColor=#666666;fontColor=#333333;" parent="1" vertex="1">
          <mxGeometry x="825" y="500" width="50" height="20" as="geometry" />
        </mxCell>
        <mxCell id="1UxBxwU_H0tkiuh4YB5s-34" value="CAnx4" style="rounded=0;whiteSpace=wrap;html=1;labelBackgroundColor=none;fillColor=#f5f5f5;strokeColor=#666666;fontColor=#333333;" parent="1" vertex="1">
          <mxGeometry x="825" y="530" width="50" height="20" as="geometry" />
        </mxCell>
        <mxCell id="1UxBxwU_H0tkiuh4YB5s-38" value="PS1" style="rounded=0;whiteSpace=wrap;html=1;labelBackgroundColor=none;fillColor=#f5f5f5;strokeColor=#666666;fontColor=#333333;" parent="1" vertex="1">
          <mxGeometry x="145" y="340" width="50" height="20" as="geometry" />
        </mxCell>
        <mxCell id="1UxBxwU_H0tkiuh4YB5s-39" value="PS2" style="rounded=0;whiteSpace=wrap;html=1;labelBackgroundColor=none;fillColor=#f5f5f5;strokeColor=#666666;fontColor=#333333;" parent="1" vertex="1">
          <mxGeometry x="145" y="370" width="50" height="20" as="geometry" />
        </mxCell>
        <mxCell id="1UxBxwU_H0tkiuh4YB5s-40" value="PS3" style="rounded=0;whiteSpace=wrap;html=1;labelBackgroundColor=none;fillColor=#f5f5f5;strokeColor=#666666;fontColor=#333333;" parent="1" vertex="1">
          <mxGeometry x="145" y="400" width="50" height="20" as="geometry" />
        </mxCell>
        <mxCell id="1UxBxwU_H0tkiuh4YB5s-42" value="PS4" style="rounded=0;whiteSpace=wrap;html=1;labelBackgroundColor=none;fillColor=#f5f5f5;strokeColor=#666666;fontColor=#333333;" parent="1" vertex="1">
          <mxGeometry x="145" y="430" width="50" height="20" as="geometry" />
        </mxCell>
        <mxCell id="1UxBxwU_H0tkiuh4YB5s-44" value="" style="endArrow=classic;html=1;rounded=0;strokeColor=#666666;fontColor=#46495D;fillColor=#f5f5f5;entryX=0;entryY=0.5;entryDx=0;entryDy=0;exitX=1;exitY=0.5;exitDx=0;exitDy=0;strokeWidth=1;endSize=1;" parent="1" source="1UxBxwU_H0tkiuh4YB5s-3" target="1UxBxwU_H0tkiuh4YB5s-20" edge="1">
          <mxGeometry width="50" height="50" relative="1" as="geometry">
            <mxPoint x="755" y="390" as="sourcePoint" />
            <mxPoint x="805" y="340" as="targetPoint" />
          </mxGeometry>
        </mxCell>
        <mxCell id="1UxBxwU_H0tkiuh4YB5s-45" value="" style="endArrow=classic;html=1;rounded=0;strokeColor=#666666;fontColor=#46495D;fillColor=#f5f5f5;entryX=0;entryY=0.5;entryDx=0;entryDy=0;exitX=1;exitY=0.5;exitDx=0;exitDy=0;strokeWidth=1;endSize=1;" parent="1" source="1UxBxwU_H0tkiuh4YB5s-3" target="1UxBxwU_H0tkiuh4YB5s-21" edge="1">
          <mxGeometry width="50" height="50" relative="1" as="geometry">
            <mxPoint x="805" y="375" as="sourcePoint" />
            <mxPoint x="825" y="345" as="targetPoint" />
          </mxGeometry>
        </mxCell>
        <mxCell id="1UxBxwU_H0tkiuh4YB5s-46" value="" style="endArrow=classic;html=1;rounded=0;strokeColor=#666666;fontColor=#46495D;fillColor=#f5f5f5;entryX=0;entryY=0.5;entryDx=0;entryDy=0;exitX=1;exitY=0.5;exitDx=0;exitDy=0;strokeWidth=1;endSize=1;" parent="1" source="1UxBxwU_H0tkiuh4YB5s-3" target="1UxBxwU_H0tkiuh4YB5s-22" edge="1">
          <mxGeometry width="50" height="50" relative="1" as="geometry">
            <mxPoint x="805" y="375" as="sourcePoint" />
            <mxPoint x="825" y="365" as="targetPoint" />
          </mxGeometry>
        </mxCell>
        <mxCell id="1UxBxwU_H0tkiuh4YB5s-47" value="" style="endArrow=classic;html=1;rounded=0;strokeColor=#666666;fontColor=#46495D;fillColor=#f5f5f5;entryX=0;entryY=0.5;entryDx=0;entryDy=0;exitX=1;exitY=0.5;exitDx=0;exitDy=0;strokeWidth=1;endSize=1;" parent="1" source="1UxBxwU_H0tkiuh4YB5s-3" target="1UxBxwU_H0tkiuh4YB5s-26" edge="1">
          <mxGeometry width="50" height="50" relative="1" as="geometry">
            <mxPoint x="805" y="375" as="sourcePoint" />
            <mxPoint x="825" y="385" as="targetPoint" />
          </mxGeometry>
        </mxCell>
        <mxCell id="1UxBxwU_H0tkiuh4YB5s-48" value="" style="endArrow=classic;html=1;rounded=0;strokeColor=#666666;fontColor=#46495D;fillColor=#f5f5f5;entryX=0;entryY=0.5;entryDx=0;entryDy=0;exitX=1;exitY=0.5;exitDx=0;exitDy=0;strokeWidth=1;endSize=1;" parent="1" target="1UxBxwU_H0tkiuh4YB5s-30" edge="1">
          <mxGeometry width="50" height="50" relative="1" as="geometry">
            <mxPoint x="795" y="495" as="sourcePoint" />
            <mxPoint x="815" y="465" as="targetPoint" />
          </mxGeometry>
        </mxCell>
        <mxCell id="1UxBxwU_H0tkiuh4YB5s-49" value="" style="endArrow=classic;html=1;rounded=0;strokeColor=#666666;fontColor=#46495D;fillColor=#f5f5f5;entryX=0;entryY=0.5;entryDx=0;entryDy=0;exitX=1;exitY=0.5;exitDx=0;exitDy=0;strokeWidth=1;endSize=1;" parent="1" target="1UxBxwU_H0tkiuh4YB5s-31" edge="1">
          <mxGeometry width="50" height="50" relative="1" as="geometry">
            <mxPoint x="795" y="495" as="sourcePoint" />
            <mxPoint x="815" y="485" as="targetPoint" />
          </mxGeometry>
        </mxCell>
        <mxCell id="1UxBxwU_H0tkiuh4YB5s-50" value="" style="endArrow=classic;html=1;rounded=0;strokeColor=#666666;fontColor=#46495D;fillColor=#f5f5f5;entryX=0;entryY=0.5;entryDx=0;entryDy=0;exitX=1;exitY=0.5;exitDx=0;exitDy=0;strokeWidth=1;endSize=1;" parent="1" target="1UxBxwU_H0tkiuh4YB5s-32" edge="1">
          <mxGeometry width="50" height="50" relative="1" as="geometry">
            <mxPoint x="795" y="495" as="sourcePoint" />
            <mxPoint x="815" y="505" as="targetPoint" />
          </mxGeometry>
        </mxCell>
        <mxCell id="1UxBxwU_H0tkiuh4YB5s-51" value="" style="endArrow=classic;html=1;rounded=0;strokeColor=#666666;fontColor=#46495D;fillColor=#f5f5f5;exitX=1;exitY=0.5;exitDx=0;exitDy=0;strokeWidth=1;endSize=1;entryX=0;entryY=0.5;entryDx=0;entryDy=0;" parent="1" target="1UxBxwU_H0tkiuh4YB5s-34" edge="1">
          <mxGeometry width="50" height="50" relative="1" as="geometry">
            <mxPoint x="795" y="495" as="sourcePoint" />
            <mxPoint x="805" y="540" as="targetPoint" />
          </mxGeometry>
        </mxCell>
        <mxCell id="1UxBxwU_H0tkiuh4YB5s-52" value="PS5" style="rounded=0;whiteSpace=wrap;html=1;labelBackgroundColor=none;fillColor=#f5f5f5;strokeColor=#666666;fontColor=#333333;" parent="1" vertex="1">
          <mxGeometry x="145" y="460" width="50" height="20" as="geometry" />
        </mxCell>
        <mxCell id="1UxBxwU_H0tkiuh4YB5s-53" value="PS6" style="rounded=0;whiteSpace=wrap;html=1;labelBackgroundColor=none;fillColor=#f5f5f5;strokeColor=#666666;fontColor=#333333;" parent="1" vertex="1">
          <mxGeometry x="145" y="490" width="50" height="20" as="geometry" />
        </mxCell>
        <mxCell id="1UxBxwU_H0tkiuh4YB5s-54" value="" style="endArrow=classic;html=1;rounded=0;strokeColor=#666666;fontColor=#46495D;fillColor=#f5f5f5;exitX=0;exitY=0.5;exitDx=0;exitDy=0;entryX=1;entryY=0.5;entryDx=0;entryDy=0;endSize=1;" parent="1" source="1UxBxwU_H0tkiuh4YB5s-1" target="1UxBxwU_H0tkiuh4YB5s-38" edge="1">
          <mxGeometry width="50" height="50" relative="1" as="geometry">
            <mxPoint x="245" y="460" as="sourcePoint" />
            <mxPoint x="295" y="410" as="targetPoint" />
          </mxGeometry>
        </mxCell>
        <mxCell id="1UxBxwU_H0tkiuh4YB5s-55" value="" style="endArrow=classic;html=1;rounded=0;strokeColor=#666666;fontColor=#46495D;fillColor=#f5f5f5;exitX=0;exitY=0.5;exitDx=0;exitDy=0;entryX=1;entryY=0.5;entryDx=0;entryDy=0;endSize=1;" parent="1" source="1UxBxwU_H0tkiuh4YB5s-1" target="1UxBxwU_H0tkiuh4YB5s-39" edge="1">
          <mxGeometry width="50" height="50" relative="1" as="geometry">
            <mxPoint x="215" y="435" as="sourcePoint" />
            <mxPoint x="195" y="385" as="targetPoint" />
          </mxGeometry>
        </mxCell>
        <mxCell id="1UxBxwU_H0tkiuh4YB5s-56" value="" style="endArrow=classic;html=1;rounded=0;strokeColor=#666666;fontColor=#46495D;fillColor=#f5f5f5;exitX=0;exitY=0.5;exitDx=0;exitDy=0;entryX=1;entryY=0.5;entryDx=0;entryDy=0;endSize=1;" parent="1" source="1UxBxwU_H0tkiuh4YB5s-1" target="1UxBxwU_H0tkiuh4YB5s-40" edge="1">
          <mxGeometry width="50" height="50" relative="1" as="geometry">
            <mxPoint x="215" y="435" as="sourcePoint" />
            <mxPoint x="195" y="405" as="targetPoint" />
          </mxGeometry>
        </mxCell>
        <mxCell id="1UxBxwU_H0tkiuh4YB5s-57" value="" style="endArrow=classic;html=1;rounded=0;strokeColor=#666666;fontColor=#46495D;fillColor=#f5f5f5;exitX=0;exitY=0.5;exitDx=0;exitDy=0;entryX=1;entryY=0.5;entryDx=0;entryDy=0;endSize=1;" parent="1" source="1UxBxwU_H0tkiuh4YB5s-1" target="1UxBxwU_H0tkiuh4YB5s-42" edge="1">
          <mxGeometry width="50" height="50" relative="1" as="geometry">
            <mxPoint x="215" y="435" as="sourcePoint" />
            <mxPoint x="195" y="425" as="targetPoint" />
          </mxGeometry>
        </mxCell>
        <mxCell id="1UxBxwU_H0tkiuh4YB5s-58" value="" style="endArrow=classic;html=1;rounded=0;strokeColor=#666666;fontColor=#46495D;fillColor=#f5f5f5;exitX=0;exitY=0.5;exitDx=0;exitDy=0;entryX=1;entryY=0.5;entryDx=0;entryDy=0;endSize=1;" parent="1" source="1UxBxwU_H0tkiuh4YB5s-1" target="1UxBxwU_H0tkiuh4YB5s-52" edge="1">
          <mxGeometry width="50" height="50" relative="1" as="geometry">
            <mxPoint x="215" y="435" as="sourcePoint" />
            <mxPoint x="195" y="445" as="targetPoint" />
          </mxGeometry>
        </mxCell>
        <mxCell id="1UxBxwU_H0tkiuh4YB5s-59" value="" style="endArrow=classic;html=1;rounded=0;strokeColor=#666666;fontColor=#46495D;fillColor=#f5f5f5;exitX=0;exitY=0.5;exitDx=0;exitDy=0;endSize=1;entryX=1;entryY=0.5;entryDx=0;entryDy=0;" parent="1" source="1UxBxwU_H0tkiuh4YB5s-1" target="1UxBxwU_H0tkiuh4YB5s-53" edge="1">
          <mxGeometry width="50" height="50" relative="1" as="geometry">
            <mxPoint x="215" y="435" as="sourcePoint" />
            <mxPoint x="195" y="475" as="targetPoint" />
          </mxGeometry>
        </mxCell>
        <mxCell id="1UxBxwU_H0tkiuh4YB5s-60" value="" style="endArrow=classic;html=1;rounded=0;strokeColor=#666666;fontColor=#46495D;fillColor=#f5f5f5;endSize=1;entryX=0.5;entryY=1;entryDx=0;entryDy=0;exitX=0.5;exitY=0;exitDx=0;exitDy=0;" parent="1" source="1UxBxwU_H0tkiuh4YB5s-2" target="1UxBxwU_H0tkiuh4YB5s-61" edge="1">
          <mxGeometry width="50" height="50" relative="1" as="geometry">
            <mxPoint x="495" y="295" as="sourcePoint" />
            <mxPoint x="555" y="285" as="targetPoint" />
          </mxGeometry>
        </mxCell>
        <mxCell id="1UxBxwU_H0tkiuh4YB5s-61" value="FA3" style="rounded=0;whiteSpace=wrap;html=1;labelBackgroundColor=none;fillColor=#f5f5f5;strokeColor=#666666;fontColor=#333333;" parent="1" vertex="1">
          <mxGeometry x="505" y="235" width="50" height="20" as="geometry" />
        </mxCell>
        <mxCell id="1UxBxwU_H0tkiuh4YB5s-62" value="FA2" style="rounded=0;whiteSpace=wrap;html=1;labelBackgroundColor=none;fillColor=#f5f5f5;strokeColor=#666666;fontColor=#333333;" parent="1" vertex="1">
          <mxGeometry x="445" y="235" width="50" height="20" as="geometry" />
        </mxCell>
        <mxCell id="1UxBxwU_H0tkiuh4YB5s-63" value="FA1" style="rounded=0;whiteSpace=wrap;html=1;labelBackgroundColor=none;fillColor=#f5f5f5;strokeColor=#666666;fontColor=#333333;" parent="1" vertex="1">
          <mxGeometry x="385" y="235" width="50" height="20" as="geometry" />
        </mxCell>
        <mxCell id="1UxBxwU_H0tkiuh4YB5s-64" value="" style="endArrow=classic;html=1;rounded=0;strokeColor=#666666;fontColor=#46495D;fillColor=#f5f5f5;endSize=1;entryX=0.5;entryY=1;entryDx=0;entryDy=0;exitX=0.5;exitY=0;exitDx=0;exitDy=0;" parent="1" source="1UxBxwU_H0tkiuh4YB5s-2" target="1UxBxwU_H0tkiuh4YB5s-62" edge="1">
          <mxGeometry width="50" height="50" relative="1" as="geometry">
            <mxPoint x="515" y="305" as="sourcePoint" />
            <mxPoint x="555" y="295" as="targetPoint" />
          </mxGeometry>
        </mxCell>
        <mxCell id="1UxBxwU_H0tkiuh4YB5s-65" value="" style="endArrow=classic;html=1;rounded=0;strokeColor=#666666;fontColor=#46495D;fillColor=#f5f5f5;endSize=1;entryX=0.5;entryY=1;entryDx=0;entryDy=0;exitX=0.5;exitY=0;exitDx=0;exitDy=0;" parent="1" source="1UxBxwU_H0tkiuh4YB5s-2" target="1UxBxwU_H0tkiuh4YB5s-63" edge="1">
          <mxGeometry width="50" height="50" relative="1" as="geometry">
            <mxPoint x="505" y="305" as="sourcePoint" />
            <mxPoint x="555" y="295" as="targetPoint" />
          </mxGeometry>
        </mxCell>
        <mxCell id="1UxBxwU_H0tkiuh4YB5s-70" value="FA4" style="rounded=0;whiteSpace=wrap;html=1;labelBackgroundColor=none;fillColor=#f5f5f5;strokeColor=#666666;fontColor=#333333;" parent="1" vertex="1">
          <mxGeometry x="565" y="235" width="50" height="20" as="geometry" />
        </mxCell>
        <mxCell id="1UxBxwU_H0tkiuh4YB5s-71" value="" style="endArrow=classic;html=1;rounded=0;strokeColor=#666666;fontColor=#46495D;fillColor=#f5f5f5;endSize=1;exitX=0.5;exitY=0;exitDx=0;exitDy=0;entryX=0.5;entryY=1;entryDx=0;entryDy=0;" parent="1" source="1UxBxwU_H0tkiuh4YB5s-2" target="1UxBxwU_H0tkiuh4YB5s-70" edge="1">
          <mxGeometry width="50" height="50" relative="1" as="geometry">
            <mxPoint x="510" y="285" as="sourcePoint" />
            <mxPoint x="540" y="265" as="targetPoint" />
          </mxGeometry>
        </mxCell>
        <mxCell id="1UxBxwU_H0tkiuh4YB5s-73" style="edgeStyle=orthogonalEdgeStyle;rounded=0;orthogonalLoop=1;jettySize=auto;html=1;exitX=1;exitY=0.5;exitDx=0;exitDy=0;entryX=0;entryY=0.5;entryDx=0;entryDy=0;strokeColor=#666666;fontColor=#46495D;fillColor=#f5f5f5;endSize=2;" parent="1" source="1UxBxwU_H0tkiuh4YB5s-72" target="1UxBxwU_H0tkiuh4YB5s-38" edge="1">
          <mxGeometry relative="1" as="geometry" />
        </mxCell>
        <mxCell id="1UxBxwU_H0tkiuh4YB5s-72" value="R" style="ellipse;whiteSpace=wrap;html=1;aspect=fixed;strokeColor=#666666;fontColor=#333333;fillColor=#f5f5f5;" parent="1" vertex="1">
          <mxGeometry x="100" y="340" width="20" height="20" as="geometry" />
        </mxCell>
        <mxCell id="1UxBxwU_H0tkiuh4YB5s-74" style="edgeStyle=orthogonalEdgeStyle;rounded=0;orthogonalLoop=1;jettySize=auto;html=1;exitX=1;exitY=0.5;exitDx=0;exitDy=0;entryX=0;entryY=0.5;entryDx=0;entryDy=0;strokeColor=#666666;fontColor=#46495D;fillColor=#f5f5f5;endSize=2;" parent="1" source="1UxBxwU_H0tkiuh4YB5s-75" edge="1">
          <mxGeometry relative="1" as="geometry">
            <mxPoint x="145" y="380" as="targetPoint" />
          </mxGeometry>
        </mxCell>
        <mxCell id="1UxBxwU_H0tkiuh4YB5s-75" value="R" style="ellipse;whiteSpace=wrap;html=1;aspect=fixed;strokeColor=#666666;fontColor=#333333;fillColor=#f5f5f5;" parent="1" vertex="1">
          <mxGeometry x="100" y="370" width="20" height="20" as="geometry" />
        </mxCell>
        <mxCell id="1UxBxwU_H0tkiuh4YB5s-76" style="edgeStyle=orthogonalEdgeStyle;rounded=0;orthogonalLoop=1;jettySize=auto;html=1;exitX=1;exitY=0.5;exitDx=0;exitDy=0;entryX=0;entryY=0.5;entryDx=0;entryDy=0;strokeColor=#666666;fontColor=#46495D;fillColor=#f5f5f5;endSize=2;" parent="1" source="1UxBxwU_H0tkiuh4YB5s-77" edge="1">
          <mxGeometry relative="1" as="geometry">
            <mxPoint x="145" y="410" as="targetPoint" />
          </mxGeometry>
        </mxCell>
        <mxCell id="1UxBxwU_H0tkiuh4YB5s-77" value="R" style="ellipse;whiteSpace=wrap;html=1;aspect=fixed;strokeColor=#666666;fontColor=#333333;fillColor=#f5f5f5;" parent="1" vertex="1">
          <mxGeometry x="100" y="400" width="20" height="20" as="geometry" />
        </mxCell>
        <mxCell id="1UxBxwU_H0tkiuh4YB5s-78" style="edgeStyle=orthogonalEdgeStyle;rounded=0;orthogonalLoop=1;jettySize=auto;html=1;exitX=1;exitY=0.5;exitDx=0;exitDy=0;entryX=0;entryY=0.5;entryDx=0;entryDy=0;strokeColor=#666666;fontColor=#46495D;fillColor=#f5f5f5;endSize=2;" parent="1" source="1UxBxwU_H0tkiuh4YB5s-79" edge="1">
          <mxGeometry relative="1" as="geometry">
            <mxPoint x="145" y="440" as="targetPoint" />
          </mxGeometry>
        </mxCell>
        <mxCell id="1UxBxwU_H0tkiuh4YB5s-79" value="R" style="ellipse;whiteSpace=wrap;html=1;aspect=fixed;strokeColor=#666666;fontColor=#333333;fillColor=#f5f5f5;" parent="1" vertex="1">
          <mxGeometry x="100" y="430" width="20" height="20" as="geometry" />
        </mxCell>
        <mxCell id="1UxBxwU_H0tkiuh4YB5s-80" style="edgeStyle=orthogonalEdgeStyle;rounded=0;orthogonalLoop=1;jettySize=auto;html=1;exitX=1;exitY=0.5;exitDx=0;exitDy=0;entryX=0;entryY=0.5;entryDx=0;entryDy=0;strokeColor=#666666;fontColor=#46495D;fillColor=#f5f5f5;endSize=2;" parent="1" source="1UxBxwU_H0tkiuh4YB5s-81" edge="1">
          <mxGeometry relative="1" as="geometry">
            <mxPoint x="145" y="470" as="targetPoint" />
          </mxGeometry>
        </mxCell>
        <mxCell id="1UxBxwU_H0tkiuh4YB5s-81" value="R" style="ellipse;whiteSpace=wrap;html=1;aspect=fixed;strokeColor=#666666;fontColor=#333333;fillColor=#f5f5f5;" parent="1" vertex="1">
          <mxGeometry x="100" y="460" width="20" height="20" as="geometry" />
        </mxCell>
        <mxCell id="1UxBxwU_H0tkiuh4YB5s-82" style="edgeStyle=orthogonalEdgeStyle;rounded=0;orthogonalLoop=1;jettySize=auto;html=1;exitX=1;exitY=0.5;exitDx=0;exitDy=0;entryX=0;entryY=0.5;entryDx=0;entryDy=0;strokeColor=#666666;fontColor=#46495D;fillColor=#f5f5f5;endSize=2;" parent="1" source="1UxBxwU_H0tkiuh4YB5s-83" edge="1">
          <mxGeometry relative="1" as="geometry">
            <mxPoint x="145" y="500" as="targetPoint" />
          </mxGeometry>
        </mxCell>
        <mxCell id="1UxBxwU_H0tkiuh4YB5s-83" value="R" style="ellipse;whiteSpace=wrap;html=1;aspect=fixed;strokeColor=#666666;fontColor=#333333;fillColor=#f5f5f5;" parent="1" vertex="1">
          <mxGeometry x="100" y="490" width="20" height="20" as="geometry" />
        </mxCell>
        <mxCell id="1UxBxwU_H0tkiuh4YB5s-90" style="edgeStyle=orthogonalEdgeStyle;rounded=0;orthogonalLoop=1;jettySize=auto;html=1;entryX=1;entryY=0.5;entryDx=0;entryDy=0;strokeColor=#666666;fontColor=#46495D;fillColor=#f5f5f5;endSize=2;" parent="1" source="1UxBxwU_H0tkiuh4YB5s-84" target="1UxBxwU_H0tkiuh4YB5s-20" edge="1">
          <mxGeometry relative="1" as="geometry" />
        </mxCell>
        <mxCell id="1UxBxwU_H0tkiuh4YB5s-84" value="R" style="ellipse;whiteSpace=wrap;html=1;aspect=fixed;strokeColor=#666666;fontColor=#333333;fillColor=#f5f5f5;" parent="1" vertex="1">
          <mxGeometry x="906" y="310" width="20" height="20" as="geometry" />
        </mxCell>
        <mxCell id="1UxBxwU_H0tkiuh4YB5s-92" style="edgeStyle=orthogonalEdgeStyle;rounded=0;orthogonalLoop=1;jettySize=auto;html=1;entryX=1;entryY=0.5;entryDx=0;entryDy=0;strokeColor=#666666;fontColor=#46495D;fillColor=#f5f5f5;endSize=2;" parent="1" source="1UxBxwU_H0tkiuh4YB5s-85" target="1UxBxwU_H0tkiuh4YB5s-21" edge="1">
          <mxGeometry relative="1" as="geometry" />
        </mxCell>
        <mxCell id="1UxBxwU_H0tkiuh4YB5s-85" value="R" style="ellipse;whiteSpace=wrap;html=1;aspect=fixed;strokeColor=#666666;fontColor=#333333;fillColor=#f5f5f5;" parent="1" vertex="1">
          <mxGeometry x="906" y="340" width="20" height="20" as="geometry" />
        </mxCell>
        <mxCell id="1UxBxwU_H0tkiuh4YB5s-93" style="edgeStyle=orthogonalEdgeStyle;rounded=0;orthogonalLoop=1;jettySize=auto;html=1;entryX=1;entryY=0.5;entryDx=0;entryDy=0;strokeColor=#666666;fontColor=#46495D;fillColor=#f5f5f5;endSize=2;" parent="1" source="1UxBxwU_H0tkiuh4YB5s-86" target="1UxBxwU_H0tkiuh4YB5s-22" edge="1">
          <mxGeometry relative="1" as="geometry" />
        </mxCell>
        <mxCell id="1UxBxwU_H0tkiuh4YB5s-86" value="R" style="ellipse;whiteSpace=wrap;html=1;aspect=fixed;strokeColor=#666666;fontColor=#333333;fillColor=#f5f5f5;" parent="1" vertex="1">
          <mxGeometry x="906" y="370" width="20" height="20" as="geometry" />
        </mxCell>
        <mxCell id="1UxBxwU_H0tkiuh4YB5s-94" style="edgeStyle=orthogonalEdgeStyle;rounded=0;orthogonalLoop=1;jettySize=auto;html=1;entryX=1;entryY=0.5;entryDx=0;entryDy=0;strokeColor=#666666;fontColor=#46495D;fillColor=#f5f5f5;endSize=2;" parent="1" source="1UxBxwU_H0tkiuh4YB5s-87" target="1UxBxwU_H0tkiuh4YB5s-26" edge="1">
          <mxGeometry relative="1" as="geometry" />
        </mxCell>
        <mxCell id="1UxBxwU_H0tkiuh4YB5s-87" value="R" style="ellipse;whiteSpace=wrap;html=1;aspect=fixed;strokeColor=#666666;fontColor=#333333;fillColor=#f5f5f5;" parent="1" vertex="1">
          <mxGeometry x="906" y="400" width="20" height="20" as="geometry" />
        </mxCell>
        <mxCell id="1UxBxwU_H0tkiuh4YB5s-95" style="edgeStyle=orthogonalEdgeStyle;rounded=0;orthogonalLoop=1;jettySize=auto;html=1;entryX=1;entryY=0.5;entryDx=0;entryDy=0;strokeColor=#666666;fontColor=#46495D;fillColor=#f5f5f5;endSize=2;" parent="1" source="1UxBxwU_H0tkiuh4YB5s-96" edge="1">
          <mxGeometry relative="1" as="geometry">
            <mxPoint x="875" y="450" as="targetPoint" />
          </mxGeometry>
        </mxCell>
        <mxCell id="1UxBxwU_H0tkiuh4YB5s-96" value="R" style="ellipse;whiteSpace=wrap;html=1;aspect=fixed;strokeColor=#666666;fontColor=#333333;fillColor=#f5f5f5;" parent="1" vertex="1">
          <mxGeometry x="906" y="440" width="20" height="20" as="geometry" />
        </mxCell>
        <mxCell id="1UxBxwU_H0tkiuh4YB5s-97" style="edgeStyle=orthogonalEdgeStyle;rounded=0;orthogonalLoop=1;jettySize=auto;html=1;entryX=1;entryY=0.5;entryDx=0;entryDy=0;strokeColor=#666666;fontColor=#46495D;fillColor=#f5f5f5;endSize=2;" parent="1" source="1UxBxwU_H0tkiuh4YB5s-98" edge="1">
          <mxGeometry relative="1" as="geometry">
            <mxPoint x="875" y="480" as="targetPoint" />
          </mxGeometry>
        </mxCell>
        <mxCell id="1UxBxwU_H0tkiuh4YB5s-98" value="R" style="ellipse;whiteSpace=wrap;html=1;aspect=fixed;strokeColor=#666666;fontColor=#333333;fillColor=#f5f5f5;" parent="1" vertex="1">
          <mxGeometry x="906" y="470" width="20" height="20" as="geometry" />
        </mxCell>
        <mxCell id="1UxBxwU_H0tkiuh4YB5s-99" style="edgeStyle=orthogonalEdgeStyle;rounded=0;orthogonalLoop=1;jettySize=auto;html=1;entryX=1;entryY=0.5;entryDx=0;entryDy=0;strokeColor=#666666;fontColor=#46495D;fillColor=#f5f5f5;endSize=2;" parent="1" source="1UxBxwU_H0tkiuh4YB5s-100" edge="1">
          <mxGeometry relative="1" as="geometry">
            <mxPoint x="875" y="510" as="targetPoint" />
          </mxGeometry>
        </mxCell>
        <mxCell id="1UxBxwU_H0tkiuh4YB5s-100" value="R" style="ellipse;whiteSpace=wrap;html=1;aspect=fixed;strokeColor=#666666;fontColor=#333333;fillColor=#f5f5f5;" parent="1" vertex="1">
          <mxGeometry x="906" y="500" width="20" height="20" as="geometry" />
        </mxCell>
        <mxCell id="1UxBxwU_H0tkiuh4YB5s-101" style="edgeStyle=orthogonalEdgeStyle;rounded=0;orthogonalLoop=1;jettySize=auto;html=1;entryX=1;entryY=0.5;entryDx=0;entryDy=0;strokeColor=#666666;fontColor=#46495D;fillColor=#f5f5f5;endSize=2;" parent="1" source="1UxBxwU_H0tkiuh4YB5s-102" edge="1">
          <mxGeometry relative="1" as="geometry">
            <mxPoint x="875" y="540" as="targetPoint" />
          </mxGeometry>
        </mxCell>
        <mxCell id="1UxBxwU_H0tkiuh4YB5s-102" value="R" style="ellipse;whiteSpace=wrap;html=1;aspect=fixed;strokeColor=#666666;fontColor=#333333;fillColor=#f5f5f5;" parent="1" vertex="1">
          <mxGeometry x="906" y="530" width="20" height="20" as="geometry" />
        </mxCell>
        <mxCell id="1UxBxwU_H0tkiuh4YB5s-104" style="edgeStyle=orthogonalEdgeStyle;rounded=0;orthogonalLoop=1;jettySize=auto;html=1;entryX=0.5;entryY=0;entryDx=0;entryDy=0;strokeColor=#666666;fontColor=#46495D;fillColor=#f5f5f5;" parent="1" source="1UxBxwU_H0tkiuh4YB5s-103" target="1UxBxwU_H0tkiuh4YB5s-63" edge="1">
          <mxGeometry relative="1" as="geometry" />
        </mxCell>
        <mxCell id="1UxBxwU_H0tkiuh4YB5s-103" value="R" style="ellipse;whiteSpace=wrap;html=1;aspect=fixed;strokeColor=#666666;fontColor=#333333;fillColor=#f5f5f5;" parent="1" vertex="1">
          <mxGeometry x="400" y="193" width="20" height="20" as="geometry" />
        </mxCell>
        <mxCell id="1UxBxwU_H0tkiuh4YB5s-105" style="edgeStyle=orthogonalEdgeStyle;rounded=0;orthogonalLoop=1;jettySize=auto;html=1;entryX=0.5;entryY=0;entryDx=0;entryDy=0;strokeColor=#666666;fontColor=#46495D;fillColor=#f5f5f5;" parent="1" source="1UxBxwU_H0tkiuh4YB5s-106" edge="1">
          <mxGeometry relative="1" as="geometry">
            <mxPoint x="470" y="235" as="targetPoint" />
          </mxGeometry>
        </mxCell>
        <mxCell id="1UxBxwU_H0tkiuh4YB5s-106" value="R" style="ellipse;whiteSpace=wrap;html=1;aspect=fixed;strokeColor=#666666;fontColor=#333333;fillColor=#f5f5f5;" parent="1" vertex="1">
          <mxGeometry x="460" y="193" width="20" height="20" as="geometry" />
        </mxCell>
        <mxCell id="1UxBxwU_H0tkiuh4YB5s-107" style="edgeStyle=orthogonalEdgeStyle;rounded=0;orthogonalLoop=1;jettySize=auto;html=1;entryX=0.5;entryY=0;entryDx=0;entryDy=0;strokeColor=#666666;fontColor=#46495D;fillColor=#f5f5f5;" parent="1" source="1UxBxwU_H0tkiuh4YB5s-108" edge="1">
          <mxGeometry relative="1" as="geometry">
            <mxPoint x="530" y="235" as="targetPoint" />
          </mxGeometry>
        </mxCell>
        <mxCell id="1UxBxwU_H0tkiuh4YB5s-108" value="R" style="ellipse;whiteSpace=wrap;html=1;aspect=fixed;strokeColor=#666666;fontColor=#333333;fillColor=#f5f5f5;" parent="1" vertex="1">
          <mxGeometry x="520" y="193" width="20" height="20" as="geometry" />
        </mxCell>
        <mxCell id="1UxBxwU_H0tkiuh4YB5s-109" style="edgeStyle=orthogonalEdgeStyle;rounded=0;orthogonalLoop=1;jettySize=auto;html=1;entryX=0.5;entryY=0;entryDx=0;entryDy=0;strokeColor=#666666;fontColor=#46495D;fillColor=#f5f5f5;" parent="1" source="1UxBxwU_H0tkiuh4YB5s-110" edge="1">
          <mxGeometry relative="1" as="geometry">
            <mxPoint x="590" y="235" as="targetPoint" />
          </mxGeometry>
        </mxCell>
        <mxCell id="1UxBxwU_H0tkiuh4YB5s-110" value="R" style="ellipse;whiteSpace=wrap;html=1;aspect=fixed;strokeColor=#666666;fontColor=#333333;fillColor=#f5f5f5;" parent="1" vertex="1">
          <mxGeometry x="580" y="193" width="20" height="20" as="geometry" />
        </mxCell>
        <mxCell id="1UxBxwU_H0tkiuh4YB5s-111" value="" style="endArrow=classic;startArrow=classic;html=1;strokeColor=#d79b00;fontColor=#46495D;fillColor=#ffe6cc;curved=1;endSize=2;entryX=1;entryY=0.5;entryDx=0;entryDy=0;exitX=1;exitY=0.5;exitDx=0;exitDy=0;strokeWidth=2;" parent="1" source="1UxBxwU_H0tkiuh4YB5s-32" target="1UxBxwU_H0tkiuh4YB5s-30" edge="1">
          <mxGeometry width="50" height="50" relative="1" as="geometry">
            <mxPoint x="855" y="520" as="sourcePoint" />
            <mxPoint x="905" y="470" as="targetPoint" />
            <Array as="points">
              <mxPoint x="910" y="480" />
            </Array>
          </mxGeometry>
        </mxCell>
        <mxCell id="962_Fyxbo-f1yYaoBkrK-5" value="" style="endArrow=blockThin;startArrow=blockThin;html=1;strokeColor=#666666;fontColor=#46495D;fillColor=#f5f5f5;entryX=0;entryY=0;entryDx=0;entryDy=0;curved=1;startFill=1;endFill=1;exitX=0;exitY=1;exitDx=0;exitDy=0;endSize=2;startSize=2;" parent="1" edge="1">
          <mxGeometry width="50" height="50" relative="1" as="geometry">
            <mxPoint x="100.92893218813452" y="357.0710678118654" as="sourcePoint" />
            <mxPoint x="100.92893218813452" y="342.9289321881345" as="targetPoint" />
            <Array as="points">
              <mxPoint x="88" y="360" />
              <mxPoint x="78" y="350" />
              <mxPoint x="88" y="340" />
            </Array>
          </mxGeometry>
        </mxCell>
        <mxCell id="962_Fyxbo-f1yYaoBkrK-6" value="" style="endArrow=blockThin;startArrow=blockThin;html=1;strokeColor=#666666;fontColor=#46495D;fillColor=#f5f5f5;entryX=0;entryY=0;entryDx=0;entryDy=0;curved=1;startFill=1;endFill=1;exitX=0;exitY=1;exitDx=0;exitDy=0;endSize=2;startSize=2;" parent="1" edge="1">
          <mxGeometry width="50" height="50" relative="1" as="geometry">
            <mxPoint x="100" y="387" as="sourcePoint" />
            <mxPoint x="100" y="373" as="targetPoint" />
            <Array as="points">
              <mxPoint x="87" y="390" />
              <mxPoint x="77" y="380" />
              <mxPoint x="87" y="370" />
            </Array>
          </mxGeometry>
        </mxCell>
        <mxCell id="962_Fyxbo-f1yYaoBkrK-7" value="" style="endArrow=blockThin;startArrow=blockThin;html=1;strokeColor=#666666;fontColor=#46495D;fillColor=#f5f5f5;entryX=0;entryY=0;entryDx=0;entryDy=0;curved=1;startFill=1;endFill=1;exitX=0;exitY=1;exitDx=0;exitDy=0;endSize=2;startSize=2;" parent="1" edge="1">
          <mxGeometry width="50" height="50" relative="1" as="geometry">
            <mxPoint x="100" y="417" as="sourcePoint" />
            <mxPoint x="100" y="403" as="targetPoint" />
            <Array as="points">
              <mxPoint x="87" y="420" />
              <mxPoint x="77" y="410" />
              <mxPoint x="87" y="400" />
            </Array>
          </mxGeometry>
        </mxCell>
        <mxCell id="962_Fyxbo-f1yYaoBkrK-11" value="" style="endArrow=blockThin;startArrow=blockThin;html=1;strokeColor=#666666;fontColor=#46495D;fillColor=#f5f5f5;entryX=0;entryY=0;entryDx=0;entryDy=0;curved=1;startFill=1;endFill=1;exitX=0;exitY=1;exitDx=0;exitDy=0;endSize=2;startSize=2;" parent="1" edge="1">
          <mxGeometry width="50" height="50" relative="1" as="geometry">
            <mxPoint x="99.99893218813452" y="447.0710678118654" as="sourcePoint" />
            <mxPoint x="99.99893218813452" y="432.9289321881345" as="targetPoint" />
            <Array as="points">
              <mxPoint x="87.07" y="450" />
              <mxPoint x="77.07" y="440" />
              <mxPoint x="87.07" y="430" />
            </Array>
          </mxGeometry>
        </mxCell>
        <mxCell id="962_Fyxbo-f1yYaoBkrK-12" value="" style="endArrow=blockThin;startArrow=blockThin;html=1;strokeColor=#666666;fontColor=#46495D;fillColor=#f5f5f5;entryX=0;entryY=0;entryDx=0;entryDy=0;curved=1;startFill=1;endFill=1;exitX=0;exitY=1;exitDx=0;exitDy=0;endSize=2;startSize=2;" parent="1" edge="1">
          <mxGeometry width="50" height="50" relative="1" as="geometry">
            <mxPoint x="99.07" y="477" as="sourcePoint" />
            <mxPoint x="99.07" y="463" as="targetPoint" />
            <Array as="points">
              <mxPoint x="86.07" y="480" />
              <mxPoint x="76.07" y="470" />
              <mxPoint x="86.07" y="460" />
            </Array>
          </mxGeometry>
        </mxCell>
        <mxCell id="962_Fyxbo-f1yYaoBkrK-13" value="" style="endArrow=blockThin;startArrow=blockThin;html=1;strokeColor=#666666;fontColor=#46495D;fillColor=#f5f5f5;entryX=0;entryY=0;entryDx=0;entryDy=0;curved=1;startFill=1;endFill=1;exitX=0;exitY=1;exitDx=0;exitDy=0;endSize=2;startSize=2;" parent="1" edge="1">
          <mxGeometry width="50" height="50" relative="1" as="geometry">
            <mxPoint x="99.07" y="507" as="sourcePoint" />
            <mxPoint x="99.07" y="493" as="targetPoint" />
            <Array as="points">
              <mxPoint x="86.07" y="510" />
              <mxPoint x="76.07" y="500" />
              <mxPoint x="86.07" y="490" />
            </Array>
          </mxGeometry>
        </mxCell>
        <mxCell id="962_Fyxbo-f1yYaoBkrK-16" value="" style="endArrow=blockThin;startArrow=blockThin;html=1;strokeColor=#666666;fontColor=#46495D;fillColor=#f5f5f5;endSize=2;startSize=2;startFill=1;endFill=1;curved=1;entryX=1;entryY=0;entryDx=0;entryDy=0;exitX=1;exitY=1;exitDx=0;exitDy=0;" parent="1" edge="1">
          <mxGeometry width="50" height="50" relative="1" as="geometry">
            <mxPoint x="926" y="327" as="sourcePoint" />
            <mxPoint x="926" y="313" as="targetPoint" />
            <Array as="points">
              <mxPoint x="940" y="330" />
              <mxPoint x="950" y="320" />
              <mxPoint x="940" y="310" />
            </Array>
          </mxGeometry>
        </mxCell>
        <mxCell id="962_Fyxbo-f1yYaoBkrK-17" value="" style="endArrow=blockThin;startArrow=blockThin;html=1;strokeColor=#666666;fontColor=#46495D;fillColor=#f5f5f5;endSize=2;startSize=2;startFill=1;endFill=1;curved=1;entryX=1;entryY=0;entryDx=0;entryDy=0;exitX=1;exitY=1;exitDx=0;exitDy=0;" parent="1" edge="1">
          <mxGeometry width="50" height="50" relative="1" as="geometry">
            <mxPoint x="926" y="357" as="sourcePoint" />
            <mxPoint x="926" y="343" as="targetPoint" />
            <Array as="points">
              <mxPoint x="940" y="360" />
              <mxPoint x="950" y="350" />
              <mxPoint x="940" y="340" />
            </Array>
          </mxGeometry>
        </mxCell>
        <mxCell id="962_Fyxbo-f1yYaoBkrK-18" value="" style="endArrow=blockThin;startArrow=blockThin;html=1;strokeColor=#666666;fontColor=#46495D;fillColor=#f5f5f5;endSize=2;startSize=2;startFill=1;endFill=1;curved=1;entryX=1;entryY=0;entryDx=0;entryDy=0;exitX=1;exitY=1;exitDx=0;exitDy=0;" parent="1" edge="1">
          <mxGeometry width="50" height="50" relative="1" as="geometry">
            <mxPoint x="926" y="387" as="sourcePoint" />
            <mxPoint x="926" y="373" as="targetPoint" />
            <Array as="points">
              <mxPoint x="940" y="390" />
              <mxPoint x="950" y="380" />
              <mxPoint x="940" y="370" />
            </Array>
          </mxGeometry>
        </mxCell>
        <mxCell id="962_Fyxbo-f1yYaoBkrK-19" value="" style="endArrow=blockThin;startArrow=blockThin;html=1;strokeColor=#666666;fontColor=#46495D;fillColor=#f5f5f5;endSize=2;startSize=2;startFill=1;endFill=1;curved=1;entryX=1;entryY=0;entryDx=0;entryDy=0;exitX=1;exitY=1;exitDx=0;exitDy=0;" parent="1" edge="1">
          <mxGeometry width="50" height="50" relative="1" as="geometry">
            <mxPoint x="926" y="417" as="sourcePoint" />
            <mxPoint x="926" y="403" as="targetPoint" />
            <Array as="points">
              <mxPoint x="940" y="420" />
              <mxPoint x="950" y="410" />
              <mxPoint x="940" y="400" />
            </Array>
          </mxGeometry>
        </mxCell>
        <mxCell id="962_Fyxbo-f1yYaoBkrK-20" value="" style="endArrow=blockThin;startArrow=blockThin;html=1;strokeColor=#666666;fontColor=#46495D;fillColor=#f5f5f5;endSize=2;startSize=2;startFill=1;endFill=1;curved=1;entryX=1;entryY=0;entryDx=0;entryDy=0;exitX=1;exitY=1;exitDx=0;exitDy=0;" parent="1" edge="1">
          <mxGeometry width="50" height="50" relative="1" as="geometry">
            <mxPoint x="926" y="457" as="sourcePoint" />
            <mxPoint x="926" y="443" as="targetPoint" />
            <Array as="points">
              <mxPoint x="940" y="460" />
              <mxPoint x="950" y="450" />
              <mxPoint x="940" y="440" />
            </Array>
          </mxGeometry>
        </mxCell>
        <mxCell id="962_Fyxbo-f1yYaoBkrK-21" value="" style="endArrow=blockThin;startArrow=blockThin;html=1;strokeColor=#666666;fontColor=#46495D;fillColor=#f5f5f5;endSize=2;startSize=2;startFill=1;endFill=1;curved=1;entryX=1;entryY=0;entryDx=0;entryDy=0;exitX=1;exitY=1;exitDx=0;exitDy=0;" parent="1" edge="1">
          <mxGeometry width="50" height="50" relative="1" as="geometry">
            <mxPoint x="926" y="487" as="sourcePoint" />
            <mxPoint x="926" y="473" as="targetPoint" />
            <Array as="points">
              <mxPoint x="940" y="490" />
              <mxPoint x="950" y="480" />
              <mxPoint x="940" y="470" />
            </Array>
          </mxGeometry>
        </mxCell>
        <mxCell id="962_Fyxbo-f1yYaoBkrK-22" value="" style="endArrow=blockThin;startArrow=blockThin;html=1;strokeColor=#666666;fontColor=#46495D;fillColor=#f5f5f5;endSize=2;startSize=2;startFill=1;endFill=1;curved=1;entryX=1;entryY=0;entryDx=0;entryDy=0;exitX=1;exitY=1;exitDx=0;exitDy=0;" parent="1" edge="1">
          <mxGeometry width="50" height="50" relative="1" as="geometry">
            <mxPoint x="926" y="517" as="sourcePoint" />
            <mxPoint x="926" y="503" as="targetPoint" />
            <Array as="points">
              <mxPoint x="940" y="520" />
              <mxPoint x="950" y="510" />
              <mxPoint x="940" y="500" />
            </Array>
          </mxGeometry>
        </mxCell>
        <mxCell id="962_Fyxbo-f1yYaoBkrK-23" value="" style="endArrow=blockThin;startArrow=blockThin;html=1;strokeColor=#666666;fontColor=#46495D;fillColor=#f5f5f5;endSize=2;startSize=2;startFill=1;endFill=1;curved=1;entryX=1;entryY=0;entryDx=0;entryDy=0;exitX=1;exitY=1;exitDx=0;exitDy=0;" parent="1" edge="1">
          <mxGeometry width="50" height="50" relative="1" as="geometry">
            <mxPoint x="926" y="547" as="sourcePoint" />
            <mxPoint x="926" y="533" as="targetPoint" />
            <Array as="points">
              <mxPoint x="940" y="550" />
              <mxPoint x="950" y="540" />
              <mxPoint x="940" y="530" />
            </Array>
          </mxGeometry>
        </mxCell>
        <mxCell id="962_Fyxbo-f1yYaoBkrK-25" value="" style="endArrow=blockThin;startArrow=blockThin;html=1;strokeColor=#666666;fontColor=#46495D;fillColor=#f5f5f5;endSize=2;startSize=2;startFill=1;endFill=1;curved=1;entryX=1;entryY=0;entryDx=0;entryDy=0;exitX=0;exitY=0;exitDx=0;exitDy=0;" parent="1" edge="1">
          <mxGeometry width="50" height="50" relative="1" as="geometry">
            <mxPoint x="403" y="193" as="sourcePoint" />
            <mxPoint x="417" y="193" as="targetPoint" />
            <Array as="points">
              <mxPoint x="400" y="177" />
              <mxPoint x="420" y="177" />
            </Array>
          </mxGeometry>
        </mxCell>
        <mxCell id="962_Fyxbo-f1yYaoBkrK-26" value="" style="endArrow=blockThin;startArrow=blockThin;html=1;strokeColor=#666666;fontColor=#46495D;fillColor=#f5f5f5;endSize=2;startSize=2;startFill=1;endFill=1;curved=1;entryX=1;entryY=0;entryDx=0;entryDy=0;exitX=0;exitY=0;exitDx=0;exitDy=0;" parent="1" edge="1">
          <mxGeometry width="50" height="50" relative="1" as="geometry">
            <mxPoint x="463" y="193" as="sourcePoint" />
            <mxPoint x="477" y="193" as="targetPoint" />
            <Array as="points">
              <mxPoint x="460" y="177" />
              <mxPoint x="480" y="177" />
            </Array>
          </mxGeometry>
        </mxCell>
        <mxCell id="962_Fyxbo-f1yYaoBkrK-27" value="" style="endArrow=blockThin;startArrow=blockThin;html=1;strokeColor=#666666;fontColor=#46495D;fillColor=#f5f5f5;endSize=2;startSize=2;startFill=1;endFill=1;curved=1;entryX=1;entryY=0;entryDx=0;entryDy=0;exitX=0;exitY=0;exitDx=0;exitDy=0;" parent="1" edge="1">
          <mxGeometry width="50" height="50" relative="1" as="geometry">
            <mxPoint x="523" y="193" as="sourcePoint" />
            <mxPoint x="537" y="193" as="targetPoint" />
            <Array as="points">
              <mxPoint x="520" y="177" />
              <mxPoint x="540" y="177" />
            </Array>
          </mxGeometry>
        </mxCell>
        <mxCell id="962_Fyxbo-f1yYaoBkrK-28" value="" style="endArrow=blockThin;startArrow=blockThin;html=1;strokeColor=#666666;fontColor=#46495D;fillColor=#f5f5f5;endSize=2;startSize=2;startFill=1;endFill=1;curved=1;entryX=1;entryY=0;entryDx=0;entryDy=0;exitX=0;exitY=0;exitDx=0;exitDy=0;" parent="1" edge="1">
          <mxGeometry width="50" height="50" relative="1" as="geometry">
            <mxPoint x="583" y="193" as="sourcePoint" />
            <mxPoint x="597" y="193" as="targetPoint" />
            <Array as="points">
              <mxPoint x="580" y="177" />
              <mxPoint x="600" y="177" />
            </Array>
          </mxGeometry>
        </mxCell>
        <mxCell id="73ULieBSl16_Q_xJ1GIW-1" value="" style="endArrow=classic;startArrow=classic;html=1;strokeColor=#d79b00;fontColor=#46495D;fillColor=#ffe6cc;curved=1;endSize=2;entryX=1;entryY=0.5;entryDx=0;entryDy=0;exitX=1;exitY=0.5;exitDx=0;exitDy=0;strokeWidth=2;" edge="1" parent="1">
          <mxGeometry width="50" height="50" relative="1" as="geometry">
            <mxPoint x="875" y="380" as="sourcePoint" />
            <mxPoint x="875" y="320" as="targetPoint" />
            <Array as="points">
              <mxPoint x="910" y="350" />
            </Array>
          </mxGeometry>
        </mxCell>
        <mxCell id="73ULieBSl16_Q_xJ1GIW-2" value="" style="endArrow=classic;startArrow=classic;html=1;strokeColor=#d79b00;fontColor=#46495D;fillColor=#ffe6cc;curved=1;endSize=2;entryX=0.5;entryY=0;entryDx=0;entryDy=0;exitX=1;exitY=0.5;exitDx=0;exitDy=0;strokeWidth=2;" edge="1" parent="1" target="1UxBxwU_H0tkiuh4YB5s-62">
          <mxGeometry width="50" height="50" relative="1" as="geometry">
            <mxPoint x="590" y="235" as="sourcePoint" />
            <mxPoint x="590" y="175" as="targetPoint" />
            <Array as="points">
              <mxPoint x="530" y="200" />
            </Array>
          </mxGeometry>
        </mxCell>
      </root>
    </mxGraphModel>
  </diagram>
</mxfile>
